<?xml version="1.0" encoding="UTF-8"?>
<!DOCTYPE svg PUBLIC "-//W3C//DTD SVG 1.1//EN" "http://www.w3.org/Graphics/SVG/1.1/DTD/svg11.dtd">
<svg version="1.1" xmlns="http://www.w3.org/2000/svg" xmlns:xlink="http://www.w3.org/1999/xlink" viewBox="0 0 320 50" id="countdownTextNoBack">
    <!-- Generated by PaintCode (www.paintcodeapp.com) -->
    <g id="countdownTextNoBack-poweredBy">
        <path id="countdownTextNoBack-bezier4" stroke="none" fill="rgb(255, 255, 255)" d="M 16.31,19.63 C 16.57,19.67 16.9,19.69 17.33,19.69 18.59,19.69 19.75,19.22 19.75,17.82 19.75,16.52 18.65,15.97 17.32,15.97 L 16.31,15.97 16.31,19.63 Z M 16.31,15.04 L 17.42,15.04 C 18.69,15.04 19.45,14.34 19.45,13.42 19.45,12.31 18.62,11.85 17.39,11.85 16.83,11.85 16.51,11.89 16.31,11.94 L 16.31,15.04 Z M 15.1,11.11 C 15.63,10.98 16.48,10.9 17.32,10.9 18.54,10.9 19.32,11.11 19.89,11.59 20.38,11.97 20.69,12.54 20.69,13.29 20.69,14.23 20.07,15.04 19.1,15.4 L 19.1,15.44 C 19.99,15.66 21.04,16.41 21.04,17.84 21.04,18.66 20.72,19.3 20.23,19.76 19.59,20.37 18.52,20.66 16.98,20.66 16.15,20.66 15.5,20.6 15.1,20.54 L 15.1,11.11 Z M 15.1,11.11" />
        <path id="countdownTextNoBack-bezier6" stroke="none" fill="rgb(255, 255, 255)" d="M 22.63,10.46 L 23.86,10.46 23.86,20.57 22.63,20.57 22.63,10.46 Z M 22.63,10.46" />
        <path id="countdownTextNoBack-bezier8" stroke="none" fill="rgb(255, 255, 255)" d="M 25.93,13.68 L 27.16,13.68 27.16,20.57 25.93,20.57 25.93,13.68 Z M 27.3,11.74 C 27.3,12.17 27.01,12.51 26.52,12.51 26.07,12.51 25.78,12.17 25.78,11.74 25.78,11.31 26.09,10.95 26.55,10.95 26.99,10.95 27.3,11.3 27.3,11.74 Z M 27.3,11.74" />
        <path id="countdownTextNoBack-bezier10" stroke="none" fill="rgb(255, 255, 255)" d="M 29.2,15.54 C 29.2,14.81 29.19,14.25 29.15,13.68 L 30.24,13.68 30.31,14.81 30.33,14.81 C 30.67,14.17 31.45,13.53 32.57,13.53 33.51,13.53 34.96,14.1 34.96,16.47 L 34.96,20.57 33.73,20.57 33.73,16.6 C 33.73,15.48 33.33,14.56 32.17,14.56 31.37,14.56 30.74,15.14 30.52,15.84 30.46,16 30.43,16.21 30.43,16.42 L 30.43,20.57 29.2,20.57 29.2,15.54 Z M 29.2,15.54" />
        <path id="countdownTextNoBack-bezier12" stroke="none" fill="rgb(255, 255, 255)" d="M 38.18,16.84 L 38.2,16.84 C 38.37,16.6 38.6,16.3 38.79,16.05 L 40.79,13.68 42.26,13.68 39.66,16.51 42.64,20.57 41.13,20.57 38.81,17.27 38.18,17.98 38.18,20.57 36.96,20.57 36.96,10.46 38.18,10.46 38.18,16.84 Z M 38.18,16.84" />
        <path id="countdownTextNoBack-bezier14" stroke="none" fill="rgb(255, 255, 255)" d="M 44.77,10.97 L 44.77,16.67 C 44.77,18.8 45.71,19.72 46.97,19.72 48.35,19.72 49.26,18.78 49.26,16.67 L 49.26,10.97 50.49,10.97 50.49,16.58 C 50.49,19.53 48.97,20.73 46.93,20.73 45,20.73 43.54,19.62 43.54,16.62 L 43.54,10.97 44.77,10.97 Z M 44.77,10.97" />
        <path id="countdownTextNoBack-bezier16" stroke="none" fill="rgb(255, 255, 255)" d="M 53.78,17.76 C 53.78,17.95 53.79,18.12 53.83,18.28 54.06,19.15 54.8,19.74 55.68,19.74 56.98,19.74 57.73,18.66 57.73,17.08 57.73,15.71 57.02,14.53 55.72,14.53 54.88,14.53 54.08,15.13 53.86,16.07 53.82,16.23 53.78,16.41 53.78,16.57 L 53.78,17.76 Z M 52.56,15.93 C 52.56,15.04 52.53,14.33 52.5,13.68 L 53.59,13.68 53.66,14.86 53.69,14.86 C 54.18,14.02 54.99,13.53 56.1,13.53 57.75,13.53 58.98,14.94 58.98,17.02 58.98,19.5 57.48,20.73 55.89,20.73 54.99,20.73 54.21,20.33 53.8,19.64 L 53.78,19.64 53.78,23.39 52.56,23.39 52.56,15.93 Z M 52.56,15.93" />
        <path id="countdownTextNoBack-bezier18" stroke="none" fill="rgb(255, 255, 255)" d="M 67.21,14.84 L 67.07,12.56 C 67.06,12.26 67.06,11.89 67.04,11.48 L 67,11.48 C 66.9,11.82 66.78,12.28 66.68,12.64 L 65.99,14.79 65.21,14.79 64.53,12.58 C 64.46,12.29 64.34,11.82 64.26,11.48 L 64.22,11.48 C 64.22,11.84 64.2,12.21 64.19,12.56 L 64.05,14.84 63.32,14.84 63.6,10.97 64.74,10.97 65.39,12.86 C 65.49,13.16 65.55,13.45 65.64,13.85 L 65.66,13.85 C 65.76,13.5 65.84,13.16 65.92,12.89 L 66.58,10.97 67.67,10.97 67.96,14.84 67.21,14.84 Z M 63.1,10.97 L 63.1,11.61 61.88,11.61 61.88,14.84 61.13,14.84 61.13,11.61 59.93,11.61 59.93,10.97 63.1,10.97 Z M 63.1,10.97" />
        <path id="countdownTextNoBack-bezier20" stroke="none" fill="rgb(255, 255, 255)" d="M 16.27,34.86 C 16.27,35.05 16.29,35.22 16.33,35.37 16.55,36.24 17.29,36.84 18.17,36.84 19.47,36.84 20.23,35.76 20.23,34.18 20.23,32.81 19.52,31.63 18.22,31.63 17.38,31.63 16.58,32.23 16.36,33.17 16.31,33.32 16.27,33.51 16.27,33.67 L 16.27,34.86 Z M 15.06,33.02 C 15.06,32.14 15.03,31.43 15,30.77 L 16.09,30.77 16.16,31.96 16.19,31.96 C 16.68,31.12 17.49,30.63 18.59,30.63 20.24,30.63 21.47,32.04 21.47,34.12 21.47,36.6 19.98,37.83 18.38,37.83 17.49,37.83 16.71,37.43 16.3,36.74 L 16.27,36.74 16.27,40.49 15.06,40.49 15.06,33.02 Z M 15.06,33.02" />
        <path id="countdownTextNoBack-bezier22" stroke="none" fill="rgb(255, 255, 255)" d="M 23.78,34.23 C 23.78,35.75 24.62,36.89 25.82,36.89 26.99,36.89 27.87,35.76 27.87,34.21 27.87,33.04 27.3,31.57 25.85,31.57 24.41,31.57 23.78,32.94 23.78,34.23 Z M 29.13,34.16 C 29.13,36.71 27.39,37.83 25.76,37.83 23.95,37.83 22.52,36.46 22.52,34.28 22.52,31.98 24.02,30.63 25.88,30.63 27.82,30.63 29.13,32.07 29.13,34.16 Z M 29.13,34.16" />
        <path id="countdownTextNoBack-bezier24" stroke="none" fill="rgb(255, 255, 255)" d="M 31.08,30.77 L 31.98,34.28 C 32.17,35.05 32.35,35.76 32.47,36.47 L 32.52,36.47 C 32.67,35.77 32.89,35.03 33.12,34.29 L 34.22,30.77 35.26,30.77 36.3,34.22 C 36.56,35.05 36.75,35.77 36.9,36.47 L 36.95,36.47 C 37.06,35.77 37.24,35.05 37.46,34.24 L 38.43,30.77 39.64,30.77 37.46,37.67 36.35,37.67 35.31,34.38 C 35.07,33.61 34.88,32.92 34.71,32.11 L 34.68,32.11 C 34.51,32.94 34.3,33.65 34.07,34.39 L 32.98,37.67 31.86,37.67 29.82,30.77 31.08,30.77 Z M 31.08,30.77" />
        <path id="countdownTextNoBack-bezier26" stroke="none" fill="rgb(255, 255, 255)" d="M 45.03,33.55 C 45.04,32.77 44.7,31.53 43.32,31.53 42.06,31.53 41.53,32.68 41.43,33.55 L 45.03,33.55 Z M 41.42,34.45 C 41.45,36.14 42.5,36.84 43.74,36.84 44.62,36.84 45.17,36.69 45.61,36.49 L 45.84,37.38 C 45.4,37.58 44.65,37.83 43.57,37.83 41.49,37.83 40.25,36.42 40.25,34.34 40.25,32.25 41.45,30.63 43.42,30.63 45.64,30.63 46.21,32.6 46.21,33.86 46.21,34.12 46.2,34.31 46.17,34.45 L 41.42,34.45 Z M 41.42,34.45" />
        <path id="countdownTextNoBack-bezier28" stroke="none" fill="rgb(255, 255, 255)" d="M 47.74,32.92 C 47.74,32.11 47.72,31.41 47.68,30.77 L 48.76,30.77 48.81,32.14 48.86,32.14 C 49.16,31.21 49.92,30.63 50.74,30.63 50.87,30.63 50.97,30.65 51.08,30.66 L 51.08,31.84 C 50.95,31.81 50.83,31.81 50.66,31.81 49.79,31.81 49.18,32.47 49.01,33.41 48.98,33.58 48.97,33.79 48.97,33.99 L 48.97,37.67 47.74,37.67 47.74,32.92 Z M 47.74,32.92" />
        <path id="countdownTextNoBack-bezier30" stroke="none" fill="rgb(255, 255, 255)" d="M 56.46,33.55 C 56.47,32.77 56.14,31.53 54.76,31.53 53.5,31.53 52.97,32.68 52.87,33.55 L 56.46,33.55 Z M 52.85,34.45 C 52.88,36.14 53.93,36.84 55.17,36.84 56.06,36.84 56.6,36.69 57.05,36.49 L 57.27,37.38 C 56.84,37.58 56.08,37.83 55.01,37.83 52.92,37.83 51.68,36.42 51.68,34.34 51.68,32.25 52.88,30.63 54.85,30.63 57.08,30.63 57.65,32.6 57.65,33.86 57.65,34.12 57.64,34.31 57.61,34.45 L 52.85,34.45 Z M 52.85,34.45" />
        <path id="countdownTextNoBack-bezier32" stroke="none" fill="rgb(255, 255, 255)" d="M 63.79,33.58 C 63.79,33.42 63.77,33.21 63.73,33.05 63.55,32.27 62.88,31.61 61.95,31.61 60.68,31.61 59.93,32.75 59.93,34.26 59.93,35.66 60.61,36.81 61.93,36.81 62.75,36.81 63.51,36.24 63.73,35.32 63.77,35.15 63.79,34.98 63.79,34.78 L 63.79,33.58 Z M 65,27.55 L 65,35.89 C 65,36.5 65.03,37.2 65.06,37.67 L 63.97,37.67 63.91,36.47 63.87,36.47 C 63.51,37.24 62.7,37.83 61.59,37.83 59.96,37.83 58.68,36.41 58.68,34.32 58.67,32.03 60.08,30.63 61.72,30.63 62.77,30.63 63.45,31.13 63.76,31.67 L 63.79,31.67 63.79,27.55 65,27.55 Z M 65,27.55" />
        <path id="countdownTextNoBack-bezier34" stroke="none" fill="rgb(255, 255, 255)" d="M 71.24,34.9 C 71.24,35.06 71.25,35.22 71.29,35.36 71.52,36.23 72.24,36.83 73.14,36.83 74.44,36.83 75.19,35.76 75.19,34.18 75.19,32.8 74.49,31.61 73.16,31.61 72.34,31.61 71.56,32.21 71.31,33.15 71.26,33.31 71.24,33.48 71.24,33.68 L 71.24,34.9 Z M 70.02,27.55 L 71.24,27.55 71.24,31.88 71.26,31.88 C 71.7,31.12 72.48,30.63 73.57,30.63 75.26,30.63 76.44,32.06 76.44,34.14 76.44,36.6 74.9,37.83 73.39,37.83 72.41,37.83 71.63,37.44 71.11,36.54 L 71.08,36.54 71.01,37.67 69.96,37.67 C 69.99,37.2 70.02,36.5 70.02,35.89 L 70.02,27.55 Z M 70.02,27.55" />
        <path id="countdownTextNoBack-bezier36" stroke="none" fill="rgb(255, 255, 255)" d="M 78.32,30.77 L 79.79,34.85 C 79.96,35.3 80.13,35.85 80.24,36.26 L 80.27,36.26 C 80.39,35.85 80.53,35.32 80.7,34.82 L 82.04,30.77 83.34,30.77 81.5,35.69 C 80.62,38.05 80.01,39.25 79.18,40.01 78.56,40.53 77.97,40.75 77.67,40.8 L 77.36,39.76 C 77.67,39.66 78.07,39.46 78.43,39.15 78.77,38.88 79.18,38.4 79.47,37.75 79.53,37.63 79.57,37.53 79.57,37.46 79.57,37.38 79.54,37.28 79.47,37.13 L 76.98,30.77 78.32,30.77 Z M 78.32,30.77" />
    </g>
    <g id="countdownTextNoBack-electricimp">
        <path id="countdownTextNoBack-bezier38" stroke="none" fill="rgb(255, 255, 255)" d="M 123.28,24.83 C 123.33,22.44 122.31,18.67 118.09,18.67 114.27,18.67 112.65,22.18 112.35,24.83 L 123.28,24.83 Z M 112.31,27.56 C 112.39,32.72 115.58,34.85 119.37,34.85 122.05,34.85 123.71,34.37 125.07,33.76 L 125.75,36.49 C 124.43,37.1 122.14,37.84 118.86,37.84 112.52,37.84 108.74,33.54 108.74,27.21 108.74,20.88 112.39,15.94 118.39,15.94 125.16,15.94 126.9,21.92 126.9,25.78 126.9,26.56 126.86,27.13 126.77,27.56 L 112.31,27.56 Z M 112.31,27.56" />
        <path id="countdownTextNoBack-bezier40" stroke="none" fill="rgb(255, 255, 255)" d="M 130.47,6.57 L 134.22,6.57 134.22,37.36 130.47,37.36 130.47,6.57 Z M 130.47,6.57" />
        <path id="countdownTextNoBack-bezier42" stroke="none" fill="rgb(255, 255, 255)" d="M 152.51,24.83 C 152.55,22.44 151.53,18.67 147.32,18.67 143.49,18.67 141.87,22.18 141.58,24.83 L 152.51,24.83 Z M 141.53,27.56 C 141.62,32.72 144.81,34.85 148.59,34.85 151.27,34.85 152.93,34.37 154.3,33.76 L 154.98,36.49 C 153.66,37.1 151.36,37.84 148.08,37.84 141.75,37.84 137.96,33.54 137.96,27.21 137.96,20.88 141.62,15.94 147.62,15.94 154.38,15.94 156.12,21.92 156.12,25.78 156.12,26.56 156.08,27.13 156,27.56 L 141.53,27.56 Z M 141.53,27.56" />
        <path id="countdownTextNoBack-bezier44" stroke="none" fill="rgb(255, 255, 255)" d="M 174.37,36.62 C 173.39,37.1 171.22,37.84 168.46,37.84 162.25,37.84 158.21,33.54 158.21,27.13 158.21,20.67 162.55,15.94 169.27,15.94 171.48,15.94 173.44,16.5 174.46,17.07 L 173.61,19.97 C 172.71,19.5 171.31,18.98 169.27,18.98 164.55,18.98 161.99,22.57 161.99,26.91 161.99,31.77 165.06,34.76 169.14,34.76 171.27,34.76 172.67,34.24 173.74,33.76 L 174.37,36.62 Z M 174.37,36.62" />
        <path id="countdownTextNoBack-bezier46" stroke="none" fill="rgb(255, 255, 255)" d="M 182.75,11.34 L 182.75,16.37 188.11,16.37 188.11,19.28 182.75,19.28 182.75,30.6 C 182.75,33.2 183.48,34.67 185.56,34.67 186.58,34.67 187.18,34.59 187.73,34.41 L 187.9,37.32 C 187.18,37.58 186.03,37.84 184.58,37.84 182.84,37.84 181.43,37.23 180.54,36.23 179.52,35.06 179.09,33.2 179.09,30.73 L 179.09,19.28 175.9,19.28 175.9,16.37 179.09,16.37 179.09,12.47 182.75,11.34 Z M 182.75,11.34" />
        <path id="countdownTextNoBack-bezier48" stroke="none" fill="rgb(255, 255, 255)" d="M 191.26,22.92 C 191.26,20.45 191.22,18.33 191.09,16.37 L 194.37,16.37 194.54,20.54 194.66,20.54 C 195.6,17.72 197.9,15.94 200.41,15.94 200.79,15.94 201.09,15.98 201.43,16.03 L 201.43,19.63 C 201.04,19.54 200.66,19.54 200.15,19.54 197.51,19.54 195.64,21.53 195.13,24.4 195.05,24.91 195,25.57 195,26.17 L 195,37.36 191.26,37.36 191.26,22.92 Z M 191.26,22.92" />
        <path id="countdownTextNoBack-bezier50" stroke="none" fill="rgb(255, 255, 255)" d="M 204.28,16.37 L 208.02,16.37 208.02,37.36 204.28,37.36 204.28,16.37 Z M 208.45,10.48 C 208.45,11.78 207.55,12.82 206.06,12.82 204.7,12.82 203.81,11.78 203.81,10.48 203.81,9.18 204.74,8.09 206.15,8.09 207.51,8.09 208.45,9.13 208.45,10.48 Z M 208.45,10.48" />
        <path id="countdownTextNoBack-bezier52" stroke="none" fill="rgb(255, 255, 255)" d="M 227.84,36.62 C 226.87,37.1 224.7,37.84 221.93,37.84 215.72,37.84 211.68,33.54 211.68,27.13 211.68,20.67 216.02,15.94 222.74,15.94 224.95,15.94 226.91,16.5 227.93,17.07 L 227.08,19.97 C 226.19,19.5 224.78,18.98 222.74,18.98 218.02,18.98 215.46,22.57 215.46,26.91 215.46,31.77 218.53,34.76 222.61,34.76 224.74,34.76 226.14,34.24 227.21,33.76 L 227.84,36.62 Z M 227.84,36.62" />
        <path id="countdownTextNoBack-bezier54" stroke="none" fill="rgb(255, 255, 255)" d="M 238.61,16.16 L 245.07,16.16 245.07,37.36 238.61,37.36 238.61,16.16 Z M 245.28,10.26 C 245.28,12.08 243.97,13.56 241.8,13.56 239.75,13.56 238.43,12.08 238.43,10.26 238.43,8.4 239.8,6.97 241.88,6.97 243.97,6.97 245.24,8.4 245.28,10.26 Z M 245.28,10.26" />
        <path id="countdownTextNoBack-bezier56" stroke="none" fill="rgb(255, 255, 255)" d="M 249.2,22.92 C 249.2,20.28 249.11,18.06 249.03,16.16 L 254.51,16.16 254.77,19.02 254.9,19.02 C 255.79,17.63 257.66,15.64 261.19,15.64 263.92,15.64 266,17.07 266.89,19.28 L 266.98,19.28 C 267.79,18.15 268.68,17.28 269.7,16.68 270.85,16.03 272.13,15.64 273.66,15.64 277.66,15.64 280.68,18.5 280.68,24.87 L 280.68,37.36 274.38,37.36 274.38,25.83 C 274.38,22.75 273.4,20.97 271.32,20.97 269.79,20.97 268.76,22.01 268.3,23.27 268.17,23.75 268.08,24.4 268.08,24.96 L 268.08,37.36 261.79,37.36 261.79,25.44 C 261.79,22.79 260.85,20.97 258.77,20.97 257.11,20.97 256.13,22.27 255.75,23.31 255.53,23.83 255.49,24.44 255.49,25 L 255.49,37.36 249.2,37.36 249.2,22.92 Z M 249.2,22.92" />
        <path id="countdownTextNoBack-bezier58" stroke="none" fill="rgb(255, 255, 255)" d="M 291.18,28.25 C 291.18,28.77 291.23,29.21 291.31,29.64 291.73,31.42 293.22,32.76 295.1,32.76 297.9,32.76 299.56,30.38 299.56,26.78 299.56,23.4 298.07,20.84 295.18,20.84 293.35,20.84 291.73,22.23 291.31,24.18 291.23,24.53 291.18,24.96 291.18,25.35 L 291.18,28.25 Z M 284.72,23.27 C 284.72,20.49 284.63,18.15 284.55,16.16 L 290.16,16.16 290.46,19.11 290.54,19.11 C 292.08,16.89 294.46,15.68 297.48,15.68 302.03,15.68 306.11,19.71 306.11,26.48 306.11,34.19 301.31,37.84 296.67,37.84 294.16,37.84 292.2,36.8 291.27,35.41 L 291.18,35.41 291.18,45.94 284.72,45.94 284.72,23.27 Z M 284.72,23.27" />
    </g>
</svg>
