<?xml version="1.0" encoding="UTF-8"?>
<!DOCTYPE svg PUBLIC "-//W3C//DTD SVG 1.1//EN" "http://www.w3.org/Graphics/SVG/1.1/DTD/svg11.dtd">
<svg version="1.1" xmlns="http://www.w3.org/2000/svg" xmlns:xlink="http://www.w3.org/1999/xlink" x="0" y="0" width="503.5" height="284" viewBox="0, 0, 503.5, 284">
  <g id="Layer_1">
    <path d="M322.184,247.996 C322.184,251.283 291.46,253.945 253.546,253.945 C215.64,253.945 184.913,251.282 184.913,247.996 C184.913,244.698 215.64,242.039 253.546,242.039 C291.46,242.039 322.184,244.698 322.184,247.996" fill="#848688"/>
    <path d="M251.168,191.215 C214.731,191.215 185.084,161.563 185.084,125.124 C185.084,88.678 214.731,59.033 251.168,59.033 C287.609,59.033 317.263,88.678 317.263,125.124 C317.263,161.563 287.609,191.215 251.168,191.215 M445.258,26.425 C441.883,25.195 438.282,26.537 437.231,29.43 L426.258,60.98 L417.698,57.835 L430.286,21.811 C431.518,18.464 429.771,14.749 426.396,13.502 C423.023,12.259 419.288,13.968 418.066,17.321 L405.472,53.345 L397.528,50.427 L408.455,19.021 C409.513,16.132 407.634,12.78 404.261,11.535 C400.892,10.3 397.298,11.642 396.219,14.535 L385.309,45.939 L380.127,44.034 L371.349,67.926 C366.512,81.093 373.313,96.055 386.783,103.986 L374.023,139.488 L349.529,130.859 C347.76,130.228 345.939,129.981 344.17,130.048 C344.257,128.418 344.303,126.777 344.303,125.124 C344.303,107.588 339.421,91.163 330.96,77.145 C340.081,66.864 344.522,52.322 340.738,38.883 C338.024,26.772 329.909,16.968 321.256,8.5 C323.538,22.19 325.042,40.182 311.505,48.671 L307.621,51.021 L307.672,51.15 C291.99,39.146 272.4,32.002 251.168,32.002 C230.225,32.002 210.878,38.953 195.297,50.669 L192.007,48.674 C178.469,40.184 179.976,22.19 182.252,8.502 C173.6,16.971 165.49,26.774 162.776,38.885 C159.084,51.986 163.21,66.136 171.868,76.362 C163.109,90.555 158.048,107.256 158.048,125.124 C158.048,126.853 158.102,128.575 158.19,130.281 C157.443,130.418 156.699,130.598 155.956,130.861 L125.59,141.568 C118.049,144.23 114.092,152.495 116.751,160.035 C119.412,167.577 127.682,171.538 135.217,168.871 L164.281,158.627 C169.235,171.435 176.965,182.869 186.698,192.226 L174.805,192.226 C119.224,192.226 73.767,148.139 71.533,93.104 L98.797,101.21 L63.806,38.964 L28.806,101.208 L54.933,93.442 C57.354,157.465 110.191,208.825 174.807,208.825 L210.414,208.825 C222.734,214.851 236.559,218.248 251.168,218.248 C291.118,218.248 325.264,192.969 338.466,157.568 C338.931,157.784 339.408,157.989 339.901,158.16 L364.226,166.74 L350.502,204.904 C349.203,208.638 351.172,212.724 354.913,214.025 C358.654,215.335 362.741,213.353 364.035,209.608 L378.541,169.267 C383.121,168.138 387.063,164.809 388.746,160.033 C390.406,155.307 389.484,150.304 386.702,146.569 L400.249,108.902 C415.594,111.494 430.369,104.49 435.178,91.362 L443.955,67.477 L438.477,65.469 L449.45,33.916 C450.508,31.018 448.631,27.658 445.258,26.425" fill="#292929"/>
    <path d="M264.568,114.549 C269.399,100.691 286.818,90.544 300.921,96.635 C303.51,100.071 305.361,104.448 303.51,108.735 C299.02,120.304 286.378,128.385 274.063,127.961 C267.314,128.246 261.729,120.829 264.568,114.549" fill="#292929"/>
    <path d="M275.909,163.987 C281.93,161.206 286.7,156.032 289.136,149.869 C281.746,154.98 273.484,159.277 264.756,161.347 C256.315,163.729 246.807,164.056 237.869,163.177 C242.987,167.382 249.683,169.578 256.302,169.079 C256.302,169.079 265.958,169.825 275.909,163.987" fill="#292929"/>
    <path d="M236.634,109.848 L201.955,97.624 C198.613,101.001 198.451,107.282 200.985,111.374 C206.794,121.714 219.004,129.387 231.07,127.705 C237.567,127.061 241.43,119.673 238.69,113.822 C238.116,112.452 237.415,111.128 236.634,109.848" fill="#292929"/>
  </g>
</svg>
